<svg id="Layer_1" data-name="Layer 1" xmlns="http://www.w3.org/2000/svg" viewBox="0 0 452.34 162"><defs><style>.cls-1{fill:#264f49;}</style></defs><title>Bucketlist</title><g id="Logo"><path class="cls-1" d="M.42,71.85,0,68.49q.84-8.82,10.18-17.43A117.92,117.92,0,0,1,33.8,34.69q14.28-7.77,45.36-13a198.84,198.84,0,0,1,29.5-2.73,97.61,97.61,0,0,1,20.89,2,29.66,29.66,0,0,1,14.9,7.88,19.07,19.07,0,0,1,5.88,14q0,8.08-6.82,15.22A44.49,44.49,0,0,1,126.4,68.91,127.6,127.6,0,0,1,88.18,77.1q9,5.46,14.91,9.55a95.81,95.81,0,0,1,12.6,10.81q6.72,6.74,8.61,11.55a24,24,0,0,1,1.89,8.61q0,12.39-9.45,23.73-6.3,7.76-17.53,12.38a62.07,62.07,0,0,1-23.83,4.62q-26.88,0-29.4-18.89a1.71,1.71,0,0,1-.42-1.26Q37.58,151,32.33,151a24.46,24.46,0,0,1-4.72-.74c-2.17-.49-3.29-1-3.36-1.57s-.1-1.76-.1-3.57,1.32-6.2,4-13.13,5.67-13.75,9-20.47Q47,92.63,56.69,75a15.82,15.82,0,0,0,1.68-5.67,15.85,15.85,0,0,0-.21-2.94Q59,60.51,68.34,51t16.9-9.56A17.62,17.62,0,0,1,92,43.29c2.8,1.26,4.48,3,5,5.25a5.93,5.93,0,0,1,.11,1.79c-.07.21-.46.18-1.16-.11a5.85,5.85,0,0,0-1.26-.42q-6.72,0-16.06,10A141,141,0,0,0,60.68,84.24q-17.85,29.4-25.62,48.29A19.18,19.18,0,0,0,33.38,139q0,3.15,2.73,3.15t7.35-5.78c3.08-3.85,5.25-5.73,6.51-5.67A4.86,4.86,0,0,1,53,131.9a5.78,5.78,0,0,1,1.57,2.2,14.09,14.09,0,0,1,.63,3.26,15.92,15.92,0,0,0,.42,2.73Q59,155,76.85,155h.84q14.48,0,24.77-6.71,11.34-7.56,11.34-18.8t-10.5-23.62a112.93,112.93,0,0,0-9.87-9.45q-13.84-12-14.27-15.32c-.29-2.24.66-4.1,2.83-5.57a10.89,10.89,0,0,1,6-2.2q10.29,0,28.14-7.35,26.25-10.71,28.13-23.73V41a10,10,0,0,0-3.35-7.13q-5.67-6.09-23.94-6.09-25,0-58.16,9A122.1,122.1,0,0,0,23.31,52.32Q6.51,63.45,6.51,76.05A9.81,9.81,0,0,0,8.19,81.4a10.48,10.48,0,0,0,3.88,3.78,54.78,54.78,0,0,0,5.78,2.52q3.57,1.36,5.14,2.1c1.05.49,1.4,1.09,1.05,1.79s-1.36.91-3,.63q-6.93-.42-13.86-5.78T.21,74A10.68,10.68,0,0,1,.42,71.85Z"/><path class="cls-1" d="M171.94,112.23a56.36,56.36,0,0,1-7.46,6.93,15.51,15.51,0,0,1-9.28,3.09,5.42,5.42,0,0,1-2.51-.9,4.53,4.53,0,0,1-2.08-2.62,11.19,11.19,0,0,1-.53-3.3,29.94,29.94,0,0,1,2.13-11,40.62,40.62,0,0,0-2.93,4.54,44.33,44.33,0,0,1-6.4,8.16c-2.52,2.55-5.07,3.83-7.63,3.83a11.13,11.13,0,0,1-4.15-1q-4.27-1.92-4.27-7,0-6.3,4.32-13t5.49-7.1a12,12,0,0,1,3-.42,8,8,0,0,1,2.93.58c1,.4.86,1-.42,2A38.78,38.78,0,0,0,131.73,110a16.27,16.27,0,0,0-1.17,5.39c0,1.45.37,2.39,1.12,2.82a4.39,4.39,0,0,0,2.19.64q2.55,0,7-3.57t12.22-14.88q1.06-1.61,3.73-6.24t3.2-5.49a12.55,12.55,0,0,1,4,.8c1.53.53,2,1.23,1.54,2.08q-5.11,8.53-7.2,12.58a29.5,29.5,0,0,0-2.82,9.5,23,23,0,0,0-.11,2.45,3.55,3.55,0,0,0,.85,2.45q1.61,1.71,4.43.16a46.15,46.15,0,0,0,7.73-6,53.08,53.08,0,0,0,7.9-8.69.77.77,0,0,1,1-.27c.39.18.59.36.59.53a1.11,1.11,0,0,1-.22.59A41,41,0,0,1,171.94,112.23Z"/><path class="cls-1" d="M196.24,96.34l.54-2.14c0-1.42-.54-2.13-1.6-2.13q-4.38,0-12,6.83t-9.6,13.76a11.84,11.84,0,0,0-.53,3.25,4.21,4.21,0,0,0,.64,2.4,4.41,4.41,0,0,0,3.95,1.92,24.64,24.64,0,0,0,5.76-.75A32.21,32.21,0,0,0,194.8,114a58.79,58.79,0,0,0,9.55-10,.83.83,0,0,1,1-.32c.39.14.59.33.59.58a3.24,3.24,0,0,1-.32,1.12,55.8,55.8,0,0,1-10.72,11.25,28.93,28.93,0,0,1-13,5.6,25.84,25.84,0,0,1-3.94.32q-5.23,0-7.95-2.56a7.63,7.63,0,0,1-2.72-5.65,17.87,17.87,0,0,1,1.49-6.72q2.67-6.08,11.42-12.48t13.86-6.39a9,9,0,0,1,2.45.32q3,1.06,3,3.41a7.44,7.44,0,0,1-1.17,3.62c-.79,1.36-1.37,1.84-1.76,1.44A1.15,1.15,0,0,1,196.24,96.34Z"/><path class="cls-1" d="M209.24,120c-2.42,1.53-4,2.32-4.7,2.39s-1.07,0-1.09-.21a1.85,1.85,0,0,1,.09-.71c.08-.26.45-1.63,1.1-4.12s1.46-5.65,2.45-9.46,1.85-7,2.6-9.58a74.1,74.1,0,0,0-5,7.89,1.13,1.13,0,0,1-1.39.56c-.62-.15-.5-.91.37-2.28q3.07-4.59,7.61-13.07c-1.12-.46-1.7-1-1.75-1.49a2.61,2.61,0,0,1,.09-1.24q.41-1.33,1.86-.72a3.73,3.73,0,0,0,.87.13A94.54,94.54,0,0,1,221.85,65,27.62,27.62,0,0,1,229,56.31a15.22,15.22,0,0,1,7.5-3.26,10.52,10.52,0,0,1,5,.74,4.2,4.2,0,0,1,2.73,3.76q.53,5.31-7.62,16.28a75.06,75.06,0,0,1-10,10.62,58.6,58.6,0,0,1-10.1,7.42,176.83,176.83,0,0,0-5.45,19.83l6-9.7a17,17,0,0,1-.31-2c-.2-2.12.13-3.47,1-4.06.47-.26.83.13,1.08,1.18l.57,1.44q7.23-10.35,10.68-12.4a6.93,6.93,0,0,1,3-1.15,4.24,4.24,0,0,1,2.52.5A2.09,2.09,0,0,1,236.87,87c.09,1-.63,2-2.19,2.89q-11.12,6.78-14.45,11.06a92.94,92.94,0,0,0,6.36,13.53,59,59,0,0,0,8.82,10.71q5.88,5.85,10.23,5.42,3.6-.34,2.66-3.47a12.55,12.55,0,0,0-2.24-4.77c-1-1.29-1.17-2-.46-2a4.06,4.06,0,0,1,2.11.76,12,12,0,0,1,1.74,2.45,7.93,7.93,0,0,1,1.15,3,5.52,5.52,0,0,1-2.41,5,10.25,10.25,0,0,1-5.14,2.22q-5,.5-10.25-4a42.29,42.29,0,0,1-9.13-11.16,59.24,59.24,0,0,1-5.86-13.89q-1.65,2.84-3.62,6.78Q210.13,119.3,209.24,120Zm29.57-55.83c1.6-3.37,2.34-5.7,2.21-7s-.72-1.86-1.78-1.75-2.34.87-3.84,2.3a54.33,54.33,0,0,0-10.31,13,107.26,107.26,0,0,0-7.62,17.41,54,54,0,0,0,16.59-15.56A57.07,57.07,0,0,0,238.81,64.19Z"/><path class="cls-1" d="M257.72,88.77q5.76,0,5.76,5.54a6.79,6.79,0,0,1-1.6,4.69q-2.67,4-8.64,6.88a29.19,29.19,0,0,1-10.13,3.26c-1,.07-1.53-.22-1.6-.86-.07-.28,0-.46.27-.53a2.36,2.36,0,0,1,.58-.11,16.92,16.92,0,0,0,6.3-2.34q7.14-3.84,10.45-7.9a6.35,6.35,0,0,0,1.38-3.68,1.53,1.53,0,0,0-1.7-1.75,9.12,9.12,0,0,0-3.74,1.17,36.56,36.56,0,0,0-10.55,8.16q-5.55,5.81-7.26,11.36a11.32,11.32,0,0,0-.53,3.36,4.55,4.55,0,0,0,1.39,3.14,5.52,5.52,0,0,0,4.26,1.49,19.86,19.86,0,0,0,7.36-1.7,39.09,39.09,0,0,0,18.56-14.83c.43-.56.82-.67,1.17-.32.29.15.43.32.43.54a1.32,1.32,0,0,1-.32.74,38.12,38.12,0,0,1-8.11,9.5q-9.49,8.1-18.45,8.1-7.68,0-10.77-4.59a7.85,7.85,0,0,1-1.17-4.37,17.17,17.17,0,0,1,1.38-6.08q2.67-6.08,11.42-12.48T257.72,88.77Z"/><path class="cls-1" d="M294.14,89.19c-1.17,0-4.5.25-10,.75l-1.39.11,5.12-9a3.08,3.08,0,0,1,1.18-1.18,5.13,5.13,0,0,0,1.59-1.76,4.35,4.35,0,0,0,.75-2.24,2.51,2.51,0,0,0-.32-1.44,3.1,3.1,0,0,0-2.82-1.17c-1.39,0-2.23.21-2.51.64l-.43.43a4.11,4.11,0,0,0-.53.74l-.59,1c-.18.32-.44.78-.8,1.38s-.67,1.2-1,1.76l-5.33,9.92a.43.43,0,0,0-.43.22q-4.9.21-5.65,1.92a1.52,1.52,0,0,0,.11,1.65,1.94,1.94,0,0,0,1.65.69,11.29,11.29,0,0,0,2.19-.21c-1.57,2.91-2.35,4.41-2.35,4.48q-3,4.47-8.21,11a1.57,1.57,0,0,0-.43.91,1.38,1.38,0,0,0,.11.59c.35.71.85.71,1.49,0a34.33,34.33,0,0,0,4.16-5.34q-3.42,7.58-3.41,11.31a6.77,6.77,0,0,0,.21,1.81,5.48,5.48,0,0,0,5.65,4,13.69,13.69,0,0,0,4.48-1,20.85,20.85,0,0,0,5.82-3.67,1.16,1.16,0,0,0,.15-1.68v0a1.2,1.2,0,0,0-1.62-.15,29.27,29.27,0,0,1-4.23,3q-2.78,1.5-4.27-.21a3.55,3.55,0,0,1-.85-2.45,23,23,0,0,1,.11-2.45q.31-3.32,6.4-15.47a16.8,16.8,0,0,1,1.7-3.09c.5-.86.93-1.6,1.28-2.24a107,107,0,0,0,12.22-1.76c1.66-.46,2.5-.91,2.5-1.33S295.31,89.19,294.14,89.19Z"/><path class="cls-1" d="M287.45,106.15l13.26,1.19a19.18,19.18,0,0,0,6.64-.89,5.2,5.2,0,0,1,3.37-.5c.72.27.56.76-.5,1.49a13.38,13.38,0,0,1-5.25,1.68,22.35,22.35,0,0,0-4.45,1,47.18,47.18,0,0,1,6.93,3.37L317.94,120q4.76-11.08,6.74-17.42a11,11,0,0,1-3.17.89c-1.32.2-2-.17-2-1.09s.79-1.65,2.38-2.18L326.26,99q3.17-9.1,7-22.08t3.86-13.17q11.89-38,20.6-47.93T373.79,3q7.33-3,11.09-3a19.59,19.59,0,0,1,16.64,8.32q4.16,5.75,4.16,14.45,0,16.46-11.19,32.68a108.94,108.94,0,0,1-27,27.43A132.86,132.86,0,0,1,334.58,100a200,200,0,0,1-11.29,23.17q30.3,19.41,43,23.57a87.22,87.22,0,0,0,27.92,4.95q14.46,0,24-7.92,5-4,5-8.32a17.06,17.06,0,0,0-1.69-7.72q-1.68-3.37.3-3.67c1.32-.19,2.38.5,3.17,2.08a32.25,32.25,0,0,1,3,13.47V142q-.19,7.51-6.93,13.27Q413,162,396.57,162a58.54,58.54,0,0,1-19.51-3q-8.42-3-13.27-4.85a72.09,72.09,0,0,1-12.08-6.54q-7.23-4.65-10.2-6.63-5.94-4-20.2-14.66Q311,144.17,303.09,144.18c-1.32,0-2.11-.24-2.38-.7a1,1,0,0,1,.1-1.28,1.42,1.42,0,0,1,1.09-.6q6.54-.58,14.66-18.42-11.1-7.32-18.62-9.9-6.74,2.77-9.31,2.77a17.88,17.88,0,0,1-3.36-.19c-2.25-.8-3.37-2.18-3.37-4.16,0-2.78,1.72-4.62,5.15-5.55ZM397.56,19q0-15-11.29-15Q376.18,4,369,14.26A90.78,90.78,0,0,0,357.55,35Q354,44.57,352.4,49.12a198.13,198.13,0,0,0-6.14,20.2q-6.52,18.21-9.5,25.15a122.38,122.38,0,0,0,39.31-27.93q16.53-17.63,20.7-39.8A42.23,42.23,0,0,0,397.56,19Z"/><path class="cls-1" d="M380,85.06c1.73,0,2.77.56,3.12,1.67a2.64,2.64,0,0,1-.26,1.82,12.91,12.91,0,0,0-.68,1.4c-.14.35-.24.62-.31.83-.35.69-.69,1.35-1,2q-5.92,11.85-6.23,15.07a21.94,21.94,0,0,0-.11,2.39,3.49,3.49,0,0,0,.83,2.39q1.45,1.66,4.16.2A43.23,43.23,0,0,0,387,107a56.22,56.22,0,0,0,7.85-8.52.69.69,0,0,1,.93-.26c.35.17.52.34.52.52a1.06,1.06,0,0,1-.21.57,40.63,40.63,0,0,1-5.61,7.17q-6.64,7.17-11.11,8.83a13.5,13.5,0,0,1-4.37.93,5.32,5.32,0,0,1-5.5-4,6.38,6.38,0,0,1-.21-1.76c0-2.42,1.1-6.1,3.32-11a34.06,34.06,0,0,1-4,5.19c-.62.69-1.11.69-1.45,0a1.28,1.28,0,0,1-.11-.57,1.51,1.51,0,0,1,.42-.88q5.09-6.34,8-10.7a1.69,1.69,0,0,1,.21-1.36c1.38-3.87,2.59-5.92,3.63-6.13Zm8.21-13.81-.83,3.32a6.86,6.86,0,0,1-1.36,3c-.9,1.39-1.59,2.08-2.07,2.08q-4.47,0-4.47-2.18,0-.42,4.47-3.84l1.76-1.35c1.11-1,1.8-1.46,2.08-1.46A.37.37,0,0,1,388.24,71.25Z"/><path class="cls-1" d="M394.57,114.88c-.9,1-1.09,1.87-.57,2.5a2.28,2.28,0,0,0,1.77.93,6.89,6.89,0,0,0,2-.31,22,22,0,0,0,8.68-5.35q4.21-4,4.21-8.16,0-2.28-5.09-5c-1.6-.84-2.5-1.32-2.7-1.46a8.85,8.85,0,0,1-3.54-3.74q-1.46,2.49-4.67,7.17-.74.84-1.35.36c-.42-.31-.45-.74-.11-1.3a39.17,39.17,0,0,0,5.61-9.76q.74-5.72,8.32-10.29T421,75.92q4,0,5.56,1.4a3.87,3.87,0,0,1,1.61,2.76,7.83,7.83,0,0,1-.78,3.11,8.1,8.1,0,0,1-3.17,3.33.65.65,0,0,1-1-.21c-.14-.41.15-1,.88-1.71a5.31,5.31,0,0,0,1.4-3,1.82,1.82,0,0,0-1.66-2.29h-.62q-4.06,0-10.13,3a25.05,25.05,0,0,0-9.51,7.8,5.84,5.84,0,0,0-1.35,3.58q0,1.82,2.49,3.27c.69.42,1.87,1.08,3.53,2s2.84,1.55,3.54,2a17,17,0,0,1,2.49,2,4.27,4.27,0,0,1,1.56,2.5c.34,2.08-.62,4.36-2.91,6.85q-4.89,5.41-14.55,7.59a18.72,18.72,0,0,1-4.41.52,3.13,3.13,0,0,1-3.07-1.66,2.24,2.24,0,0,1-.31-1.3c0-.59.56-1.54,1.66-2.86a16,16,0,0,1,5-3,.47.47,0,0,1,.62.62c-.06.21-.43.45-1.09.73A5.76,5.76,0,0,0,394.57,114.88Z"/><path class="cls-1" d="M440.91,84.75q8-.72,9.71-.72c1.15,0,1.72.17,1.72.52s-.82.84-2.44,1.29A100.29,100.29,0,0,1,438,87.56c-.35.62-.76,1.35-1.25,2.18a16.3,16.3,0,0,0-1.66,3q-5.93,11.85-6.23,15.07a21.94,21.94,0,0,0-.11,2.39,3.45,3.45,0,0,0,.84,2.39c1,1.11,2.35,1.18,4.15.2a43.23,43.23,0,0,0,7.53-5.81,56.22,56.22,0,0,0,7.85-8.52.76.76,0,0,1,1-.21q1.56.72-5.41,8.21-6.64,7.17-11.11,8.83a13.5,13.5,0,0,1-4.37.93,5.33,5.33,0,0,1-5.5-4,6.38,6.38,0,0,1-.21-1.76c0-2.42,1.11-6.1,3.32-11a32.68,32.68,0,0,1-4.05,5.19c-.62.69-1.11.69-1.45,0a1.28,1.28,0,0,1-.11-.57,1.51,1.51,0,0,1,.42-.88q5.08-6.34,8-10.7,0-.1,2.28-4.37a10.66,10.66,0,0,1-2.12.21,1.9,1.9,0,0,1-1.62-.68,1.49,1.49,0,0,1-.1-1.61c.48-1.1,2.32-1.73,5.51-1.87a.42.42,0,0,1,.41-.2l5.2-9.67c.27-.55.59-1.12.93-1.71s.61-1,.78-1.35.37-.64.57-1a4.42,4.42,0,0,1,.52-.73l.42-.41c.27-.42,1.09-.62,2.44-.62a3,3,0,0,1,2.75,1.14,2.37,2.37,0,0,1,.31,1.4,4.28,4.28,0,0,1-.72,2.18A5.2,5.2,0,0,1,445.69,75a2.82,2.82,0,0,0-1.14,1.14l-5,8.73Z"/><path class="cls-1" d="M149.49,141.55v9.89h-.79v-9.89H145v-.71h8.18v.71Z"/><path class="cls-1" d="M178.37,151.44,175,147.05h-3.47v4.39h-.79v-10.6h4.46a5.11,5.11,0,0,1,1.56.22,3.45,3.45,0,0,1,1.19.62,2.78,2.78,0,0,1,.76.95,2.64,2.64,0,0,1,.28,1.22v0a2.81,2.81,0,0,1-.24,1.19,2.67,2.67,0,0,1-.65.9,3.32,3.32,0,0,1-1,.62,4.72,4.72,0,0,1-1.23.32l3.5,4.53Zm-.18-7.56a2.07,2.07,0,0,0-.8-1.71,3.61,3.61,0,0,0-2.25-.62h-3.62v4.79h3.58a4.4,4.4,0,0,0,1.23-.17,2.89,2.89,0,0,0,1-.48,2.23,2.23,0,0,0,.64-.76,2.13,2.13,0,0,0,.24-1Z"/><path class="cls-1" d="M205.7,151.44l-1.35-3H198.1l-1.35,3h-.82l4.94-10.68h.76l4.94,10.68Zm-4.47-9.81-2.8,6.13H204Z"/><path class="cls-1" d="M226.9,151.52h-.7l-4.67-10.68h.88l4.15,9.76,4.17-9.76h.83Z"/><path class="cls-1" d="M249,151.44v-10.6h7.54v.71h-6.75v4.2h6.07v.71h-6.07v4.27h6.83v.71Z"/><path class="cls-1" d="M274.26,151.44v-10.6h.79v9.89h6.23v.71Z"/></g></svg>