<?xml version="1.0" encoding="utf-8"?>
<!-- Generator: Adobe Illustrator 24.0.1, SVG Export Plug-In . SVG Version: 6.00 Build 0)  -->
<svg version="1.1" id="Layer_1" xmlns="http://www.w3.org/2000/svg" xmlns:xlink="http://www.w3.org/1999/xlink" x="0px" y="0px"
	 viewBox="0 0 358 128" style="enable-background:new 0 0 358 128;" xml:space="preserve">
<style type="text/css">
	.st0{fill:#231F20;}
</style>
<g>
	<g>
		<path class="st0" d="M0.33,56.91L0,54.25c0.44-4.66,3.13-9.26,8.07-13.8C13,35.9,19.23,31.57,26.77,27.47
			c7.54-4.1,19.51-7.54,35.92-10.31C72.01,15.72,79.79,15,86.06,15c6.26,0,11.78,0.53,16.55,1.58c4.77,1.06,8.7,3.13,11.81,6.24
			c3.1,3.1,4.66,6.79,4.66,11.06c0,4.27-1.8,8.29-5.4,12.06c-3.6,3.77-8.12,6.65-13.55,8.65c-10.53,3.88-20.62,6.04-30.27,6.49
			c4.77,2.88,8.7,5.4,11.81,7.57c3.1,2.16,6.43,5.02,9.98,8.56c3.55,3.55,5.82,6.6,6.82,9.15c1,2.55,1.5,4.82,1.5,6.82
			c0,6.54-2.49,12.81-7.48,18.79c-3.33,4.1-7.96,7.37-13.89,9.81c-5.93,2.44-12.22,3.66-18.88,3.66c-14.19,0-21.95-4.99-23.28-14.97
			c-0.22-0.22-0.33-0.55-0.33-1c-4.21,6.76-7.71,10.14-10.48,10.14c-0.78,0-2.02-0.19-3.74-0.58c-1.72-0.39-2.61-0.81-2.66-1.25
			c-0.06-0.44-0.08-1.39-0.08-2.83c0-1.44,1.05-4.91,3.16-10.39c2.1-5.49,4.49-10.89,7.15-16.21C34.64,78.36,39.8,68.71,44.9,59.4
			c0.89-2,1.33-3.49,1.33-4.49c0-1-0.06-1.77-0.17-2.33c0.44-3.1,3.13-7.18,8.07-12.22c4.93-5.04,9.4-7.57,13.39-7.57
			c1.33,0,3.1,0.5,5.32,1.5c2.22,1,3.55,2.39,3.99,4.16c0.11,0.78,0.14,1.25,0.08,1.41C76.85,40.03,76.55,40,76,39.78
			c-0.56-0.22-0.89-0.33-1-0.33c-3.55,0-7.79,2.63-12.72,7.9c-4.93,5.27-9.67,11.72-14.22,19.37
			c-9.42,15.52-16.19,28.27-20.29,38.25c-0.89,2.22-1.33,3.94-1.33,5.16c0,1.66,0.72,2.49,2.16,2.49c1.44,0,3.38-1.52,5.82-4.57
			c2.44-3.05,4.16-4.54,5.16-4.49c1,0.06,1.8,0.36,2.41,0.91c0.61,0.56,1.02,1.14,1.25,1.75c0.22,0.61,0.39,1.47,0.5,2.58
			c0.11,1.11,0.22,1.83,0.33,2.16c1.77,7.87,7.37,11.81,16.8,11.81c0.22,0,0.44,0,0.67,0c7.65,0,14.19-1.77,19.62-5.32
			c5.99-3.99,8.98-8.95,8.98-14.88c0-5.93-2.77-12.17-8.31-18.71c-1.77-2-4.38-4.49-7.82-7.48C66.69,70.04,62.91,66,62.69,64.22
			c-0.22-1.77,0.52-3.24,2.25-4.41c1.72-1.16,3.3-1.75,4.74-1.75c5.43,0,12.86-1.94,22.28-5.82c13.86-5.65,21.29-11.92,22.28-18.79
			c0-0.44,0-0.77,0-1c0-2-0.89-3.88-2.66-5.65c-2.99-3.21-9.31-4.82-18.96-4.82c-13.19,0-28.55,2.39-46.06,7.15
			c-10.64,2.88-20.01,6.98-28.1,12.31c-8.87,5.88-13.3,12.14-13.3,18.79c0,1.44,0.44,2.86,1.33,4.24c0.89,1.39,1.91,2.39,3.08,2.99
			c1.16,0.61,2.69,1.28,4.57,2c1.88,0.72,3.24,1.28,4.07,1.66c0.83,0.39,1.11,0.86,0.83,1.41c-0.28,0.56-1.08,0.72-2.41,0.5
			c-3.66-0.22-7.32-1.75-10.98-4.57C2,65.64,0.17,62.34,0.17,58.57C0.17,58.02,0.22,57.46,0.33,56.91z"/>
	</g>
	<g>
		<path class="st0" d="M136.18,88.89c-2.2,2.37-4.17,4.2-5.91,5.49c-2.25,1.63-4.7,2.45-7.35,2.45c-0.51,0-1.17-0.24-1.98-0.72
			c-0.82-0.48-1.37-1.17-1.65-2.07c-0.28-0.9-0.42-1.77-0.42-2.62c0-2.93,0.56-5.83,1.69-8.7c-0.17,0.11-0.94,1.31-2.32,3.59
			c-1.38,2.28-3.07,4.43-5.07,6.46c-2,2.03-4.01,3.04-6.04,3.04c-0.96,0-2.06-0.25-3.29-0.76c-2.25-1.01-3.38-2.87-3.38-5.58
			c0-3.32,1.14-6.74,3.42-10.26c2.28-3.52,3.73-5.39,4.35-5.62c0.84-0.22,1.65-0.34,2.41-0.34c0.76,0,1.53,0.16,2.32,0.46
			c0.79,0.31,0.68,0.83-0.34,1.56c-3.89,3.55-6.65,7.49-8.28,11.83c-0.62,1.69-0.93,3.11-0.93,4.27c0,1.15,0.3,1.9,0.89,2.24
			c0.59,0.34,1.17,0.51,1.73,0.51c1.35,0,3.2-0.94,5.53-2.83c2.34-1.89,5.56-5.81,9.67-11.78c0.56-0.84,1.55-2.49,2.96-4.94
			c1.41-2.45,2.25-3.9,2.53-4.35c0.9,0,1.96,0.21,3.17,0.63c1.21,0.42,1.62,0.97,1.22,1.65c-2.7,4.51-4.6,7.83-5.7,9.97
			c-1.1,2.14-1.85,4.65-2.24,7.52c-0.06,0.51-0.08,1.15-0.08,1.94c0,0.79,0.22,1.44,0.68,1.94c0.84,0.9,2.01,0.94,3.51,0.13
			c1.49-0.82,3.53-2.39,6.12-4.73c2.59-2.34,4.67-4.63,6.25-6.88c0.22-0.28,0.49-0.35,0.8-0.21c0.31,0.14,0.46,0.28,0.46,0.42
			c0,0.14-0.06,0.3-0.17,0.46C139.9,84.58,138.38,86.52,136.18,88.89z"/>
	</g>
	<g>
		<path class="st0" d="M155.43,76.3l0.42-1.69c0-1.13-0.42-1.69-1.27-1.69c-2.31,0-5.46,1.8-9.46,5.41c-4,3.6-6.53,7.24-7.6,10.9
			c-0.28,0.96-0.42,1.82-0.42,2.58c0,0.76,0.17,1.39,0.51,1.9c0.68,1.01,1.72,1.52,3.13,1.52c1.41,0,2.93-0.2,4.56-0.59
			c3.6-1.01,6.6-2.46,9-4.35c2.39-1.89,4.91-4.52,7.56-7.9c0.22-0.28,0.49-0.37,0.8-0.25c0.31,0.11,0.46,0.27,0.46,0.46
			c0,0.2-0.08,0.49-0.25,0.89c-2.7,3.66-5.53,6.63-8.49,8.91c-2.96,2.28-6.38,3.76-10.26,4.43c-1.13,0.17-2.17,0.25-3.13,0.25
			c-2.76,0-4.86-0.68-6.29-2.03s-2.15-2.84-2.15-4.48c0-1.63,0.39-3.41,1.18-5.32c1.41-3.21,4.42-6.5,9.04-9.88
			c4.62-3.38,8.28-5.07,10.98-5.07c0.68,0,1.32,0.08,1.94,0.25c1.58,0.56,2.37,1.47,2.37,2.7c0,0.84-0.31,1.8-0.93,2.87
			c-0.62,1.07-1.08,1.45-1.39,1.14C155.42,76.96,155.32,76.64,155.43,76.3z"/>
	</g>
	<g>
		<path class="st0" d="M165.72,95.06c-1.92,1.21-3.16,1.84-3.72,1.89c-0.56,0.05-0.85,0-0.87-0.17c-0.02-0.17,0.01-0.35,0.07-0.56
			c0.06-0.21,0.35-1.29,0.87-3.27c0.51-1.97,1.16-4.47,1.94-7.49c0.78-3.02,1.46-5.55,2.06-7.59c-1.15,1.53-2.48,3.61-3.97,6.25
			c-0.24,0.42-0.61,0.57-1.1,0.45c-0.49-0.12-0.4-0.72,0.29-1.81c1.63-2.42,3.64-5.87,6.03-10.35c-0.88-0.37-1.35-0.76-1.39-1.18
			c-0.04-0.42-0.02-0.75,0.07-0.98c0.21-0.7,0.7-0.89,1.47-0.57c0.35,0.08,0.58,0.11,0.69,0.1c1.83-6.74,4.34-12.85,7.54-18.31
			c1.74-3.06,3.64-5.35,5.69-6.88c2.06-1.53,4.04-2.39,5.94-2.58c1.35-0.13,2.67,0.07,3.96,0.59c1.3,0.52,2.02,1.51,2.16,2.97
			c0.27,2.8-1.74,7.1-6.04,12.9c-2.31,3-4.95,5.8-7.92,8.41c-2.97,2.61-5.64,4.57-8,5.88c-1.71,5.03-3.15,10.27-4.32,15.7l4.76-7.68
			c-0.11-0.5-0.19-1.03-0.24-1.59c-0.16-1.68,0.1-2.75,0.79-3.22c0.38-0.21,0.66,0.11,0.86,0.93l0.45,1.14
			c3.82-5.47,6.64-8.74,8.46-9.83c0.85-0.54,1.64-0.84,2.37-0.91c0.73-0.07,1.39,0.06,1.99,0.4c0.6,0.34,0.92,0.73,0.96,1.18
			c0.08,0.79-0.5,1.55-1.73,2.29c-5.87,3.58-9.69,6.5-11.45,8.76c1.81,4.58,3.48,8.15,5.04,10.71c1.55,2.56,3.88,5.39,6.98,8.48
			s5.8,4.52,8.1,4.3c1.9-0.19,2.61-1.1,2.11-2.75c-0.37-1.49-0.96-2.75-1.77-3.77c-0.81-1.02-0.93-1.56-0.37-1.62
			c0.51,0.01,1.07,0.21,1.67,0.6c0.37,0.36,0.83,1.01,1.38,1.94c0.54,0.94,0.85,1.74,0.92,2.41c0.1,1.57-0.54,2.88-1.91,3.92
			c-1.37,1.04-2.73,1.63-4.07,1.76c-2.64,0.26-5.34-0.79-8.12-3.15c-2.78-2.36-5.19-5.31-7.23-8.84c-2.04-3.53-3.59-7.2-4.64-11
			c-0.87,1.5-1.83,3.29-2.87,5.37C167.5,92.43,166.19,94.68,165.72,95.06z M189.15,50.84c1.27-2.67,1.85-4.51,1.75-5.52
			c-0.1-1.01-0.57-1.47-1.41-1.39c-0.84,0.08-1.86,0.69-3.05,1.83c-3.32,3.1-6.04,6.52-8.16,10.26c-2.12,3.74-4.14,8.34-6.03,13.79
			c4.98-2.92,9.35-7.03,13.14-12.32C186.62,55.73,187.88,53.51,189.15,50.84z"/>
	</g>
	<g>
		<path class="st0" d="M204.12,70.3c3.04,0,4.56,1.47,4.56,4.39c0,1.52-0.42,2.76-1.27,3.72c-1.41,2.08-3.69,3.9-6.84,5.45
			c-3.15,1.55-5.83,2.41-8.02,2.58c-0.79,0.06-1.21-0.17-1.27-0.68c-0.06-0.22,0.01-0.37,0.21-0.42c0.2-0.06,0.35-0.08,0.46-0.08
			c1.29-0.11,2.96-0.73,4.98-1.86c3.77-2.03,6.53-4.11,8.28-6.25c0.73-1.01,1.1-1.98,1.1-2.91c0-0.93-0.45-1.39-1.35-1.39
			c-0.73,0-1.72,0.31-2.96,0.93c-2.65,1.24-5.44,3.39-8.36,6.46c-2.93,3.07-4.84,6.07-5.74,9c-0.28,0.9-0.42,1.79-0.42,2.66
			c0,0.87,0.37,1.7,1.1,2.49c0.73,0.79,1.86,1.18,3.38,1.18c1.69,0,3.63-0.45,5.83-1.35c6.36-2.59,11.26-6.5,14.7-11.74
			c0.34-0.45,0.65-0.53,0.93-0.25c0.22,0.11,0.34,0.25,0.34,0.42c0,0.17-0.08,0.37-0.25,0.59c-1.69,2.82-3.83,5.32-6.42,7.52
			c-5.01,4.28-9.88,6.42-14.61,6.42c-4.05,0-6.9-1.21-8.53-3.63c-0.62-0.96-0.93-2.11-0.93-3.46s0.37-2.96,1.1-4.81
			c1.41-3.21,4.42-6.5,9.04-9.88C197.76,71.99,201.42,70.3,204.12,70.3z"/>
	</g>
	<g>
		<path class="st0" d="M232.97,70.64c-0.93,0-3.56,0.2-7.9,0.59l-1.1,0.08l4.05-7.1c0.17-0.34,0.48-0.65,0.93-0.93
			c0.45-0.28,0.87-0.75,1.27-1.39c0.39-0.65,0.59-1.24,0.59-1.77c0-0.53-0.08-0.91-0.25-1.14c-0.39-0.62-1.14-0.93-2.24-0.93
			c-1.1,0-1.76,0.17-1.98,0.51c-0.11,0.11-0.23,0.23-0.34,0.34c-0.11,0.11-0.25,0.31-0.42,0.59c-0.17,0.28-0.32,0.55-0.46,0.8
			c-0.14,0.25-0.35,0.62-0.63,1.1c-0.28,0.48-0.54,0.94-0.76,1.39l-4.22,7.86c-0.17,0-0.28,0.06-0.34,0.17
			c-2.59,0.11-4.08,0.62-4.48,1.52c-0.23,0.51-0.2,0.94,0.08,1.31c0.28,0.37,0.72,0.55,1.31,0.55c0.59,0,1.17-0.06,1.73-0.17
			c-1.24,2.31-1.86,3.49-1.86,3.55c-1.58,2.37-3.75,5.27-6.5,8.7c-0.23,0.28-0.34,0.52-0.34,0.72c0,0.2,0.03,0.35,0.08,0.46
			c0.28,0.56,0.68,0.56,1.18,0c1.91-2.2,3.01-3.6,3.29-4.22c-1.8,4-2.7,6.98-2.7,8.95c0,0.56,0.06,1.04,0.17,1.44
			c0.73,2.14,2.22,3.21,4.48,3.21c0.96,0,2.14-0.25,3.55-0.76c1.35-0.5,2.89-1.48,4.61-2.91c0.4-0.34,0.48-0.95,0.12-1.33
			c0,0-0.01-0.01-0.01-0.01c-0.34-0.36-0.89-0.43-1.28-0.12c-1.33,1.08-2.45,1.86-3.35,2.35c-1.46,0.79-2.59,0.73-3.38-0.17
			c-0.45-0.51-0.68-1.15-0.68-1.94c0-0.79,0.03-1.44,0.08-1.94c0.17-1.74,1.86-5.83,5.07-12.25c0.06-0.28,0.51-1.1,1.35-2.45
			c0.39-0.68,0.73-1.27,1.01-1.77c5.12-0.56,8.35-1.03,9.67-1.39c1.32-0.37,1.98-0.72,1.98-1.06
			C234.36,70.78,233.9,70.64,232.97,70.64z"/>
	</g>
	<g>
		<path class="st0" d="M227.67,84.08l10.51,0.94c2.3,0,4.05-0.24,5.26-0.71c1.2-0.47,2.09-0.6,2.67-0.39
			c0.57,0.21,0.44,0.6-0.39,1.18c-0.84,0.58-2.22,1.02-4.16,1.33c-1.94,0.31-3.11,0.58-3.53,0.78c1.67,0.63,3.5,1.52,5.49,2.67
			l8.31,5.18c2.51-5.86,4.29-10.46,5.33-13.8c-0.63,0.31-1.47,0.55-2.51,0.71c-1.05,0.16-1.57-0.13-1.57-0.86
			c0-0.73,0.63-1.31,1.88-1.73l3.45-0.94c1.67-4.81,3.53-10.64,5.57-17.49c2.04-6.85,3.06-10.33,3.06-10.43
			c6.27-20.08,11.71-32.73,16.31-37.96c4.6-5.23,8.84-8.63,12.71-10.2c3.87-1.57,6.8-2.35,8.78-2.35c5.54,0,9.93,2.2,13.18,6.59
			c2.2,3.03,3.29,6.85,3.29,11.45c0,8.68-2.96,17.31-8.86,25.88c-5.91,8.58-13.05,15.82-21.41,21.72
			c-8.37,5.91-17.05,10.43-26.04,13.57c-3.14,7.43-6.12,13.54-8.94,18.35c16,10.25,27.34,16.47,34.04,18.67
			c7.74,2.61,15.11,3.92,22.12,3.92c7.63,0,13.96-2.09,18.98-6.27c2.61-2.09,3.92-4.29,3.92-6.59c0-2.3-0.45-4.34-1.33-6.12
			c-0.89-1.78-0.81-2.74,0.23-2.9c1.04-0.16,1.88,0.39,2.51,1.65c1.57,3.45,2.35,7,2.35,10.67c0,0.63,0,1.26,0,1.88
			c-0.11,3.97-1.94,7.48-5.49,10.51c-4.18,3.55-10.62,5.33-19.29,5.33c-5.86,0-11.01-0.78-15.45-2.35
			c-4.45-1.57-7.95-2.85-10.51-3.84c-2.56-1-5.75-2.72-9.57-5.18c-3.82-2.46-6.51-4.21-8.08-5.26c-3.14-2.09-8.47-5.96-16-11.61
			c-5.44,9.41-10.25,14.12-14.43,14.12c-1.05,0-1.67-0.18-1.88-0.55c-0.21-0.37-0.18-0.71,0.08-1.02c0.26-0.31,0.55-0.47,0.86-0.47
			c3.45-0.31,7.32-5.18,11.61-14.59c-5.86-3.87-10.77-6.48-14.74-7.84c-3.56,1.47-6.01,2.2-7.37,2.2c-1.36,0-2.25-0.05-2.67-0.16
			c-1.78-0.63-2.67-1.73-2.67-3.29c0-2.2,1.36-3.66,4.08-4.39H227.67z M314.88,15.06c0-7.95-2.98-11.92-8.94-11.92
			c-5.33,0-9.88,2.72-13.65,8.16c-4.18,5.86-7.22,11.32-9.1,16.39c-1.88,5.07-3.24,8.81-4.08,11.22c-2.09,5.86-3.71,11.19-4.86,16
			c-3.45,9.62-5.96,16.26-7.53,19.92c12.02-5.44,22.4-12.81,31.14-22.12c8.73-9.31,14.2-19.82,16.39-31.53
			C314.67,18.98,314.88,16.94,314.88,15.06z"/>
	</g>
	<g>
		<path class="st0" d="M300.99,67.37c1.37,0,2.19,0.44,2.47,1.32c0.11,0.49,0.04,0.97-0.21,1.44c-0.25,0.47-0.43,0.84-0.53,1.11
			c-0.11,0.27-0.19,0.49-0.25,0.66c-0.27,0.55-0.55,1.07-0.82,1.56c-3.13,6.25-4.77,10.23-4.94,11.93
			c-0.06,0.49-0.08,1.12-0.08,1.89c0,0.77,0.22,1.4,0.66,1.89c0.77,0.88,1.86,0.93,3.29,0.16c1.43-0.77,3.41-2.3,5.97-4.61
			c2.55-2.3,4.62-4.55,6.21-6.75c0.22-0.27,0.47-0.34,0.74-0.21c0.27,0.14,0.41,0.28,0.41,0.41c0,0.14-0.06,0.29-0.16,0.45
			c-0.82,1.48-2.3,3.37-4.44,5.68c-3.51,3.79-6.45,6.12-8.8,6.99c-1.37,0.49-2.52,0.74-3.46,0.74c-2.19,0-3.65-1.04-4.36-3.13
			c-0.11-0.38-0.16-0.85-0.16-1.4c0-1.92,0.88-4.83,2.63-8.72c-0.28,0.6-1.34,1.97-3.21,4.11c-0.49,0.55-0.88,0.55-1.15,0
			c-0.06-0.11-0.08-0.26-0.08-0.45c0-0.19,0.11-0.42,0.33-0.7c2.69-3.35,4.8-6.17,6.34-8.48c-0.11-0.27-0.06-0.63,0.16-1.07
			c1.1-3.07,2.06-4.69,2.88-4.85C300.58,67.37,300.77,67.37,300.99,67.37z M307.49,56.43l-0.66,2.63c0,0.49-0.36,1.29-1.07,2.39
			c-0.71,1.1-1.26,1.65-1.65,1.65c-2.36,0-3.54-0.58-3.54-1.73c0-0.22,1.18-1.23,3.54-3.04l1.4-1.07c0.88-0.77,1.43-1.15,1.65-1.15
			C307.38,56.1,307.49,56.21,307.49,56.43z"/>
	</g>
	<g>
		<path class="st0" d="M312.51,90.99c-0.71,0.82-0.86,1.48-0.45,1.97c0.41,0.49,0.88,0.74,1.4,0.74c0.52,0,1.06-0.08,1.6-0.25
			c2.36-0.71,4.65-2.13,6.87-4.24c2.22-2.11,3.33-4.26,3.33-6.46c0-1.21-1.34-2.52-4.03-3.95c-1.26-0.66-1.97-1.04-2.14-1.15
			c-1.48-0.99-2.41-1.97-2.8-2.96c-0.77,1.32-2,3.21-3.7,5.68c-0.38,0.44-0.74,0.53-1.07,0.29c-0.33-0.25-0.36-0.59-0.08-1.03
			c2.25-3.07,3.73-5.65,4.44-7.73c0.38-3.02,2.58-5.73,6.58-8.15c4-2.41,7.65-3.62,10.94-3.62c2.08,0,3.55,0.37,4.4,1.11
			c0.85,0.74,1.28,1.47,1.28,2.18c0,0.71-0.21,1.54-0.62,2.47c-0.41,0.93-1.25,1.81-2.51,2.63c-0.33,0.22-0.6,0.16-0.82-0.16
			c-0.11-0.33,0.12-0.78,0.7-1.36c0.58-0.58,0.95-1.36,1.11-2.35c0.16-0.99-0.27-1.59-1.32-1.81c-0.16,0-0.33,0-0.49,0
			c-2.14,0-4.81,0.8-8.02,2.39c-3.21,1.59-5.72,3.65-7.53,6.17c-0.71,0.93-1.07,1.88-1.07,2.84c0,0.96,0.66,1.82,1.97,2.59
			c0.55,0.33,1.48,0.85,2.8,1.56c1.32,0.71,2.25,1.23,2.8,1.56c0.55,0.33,1.21,0.85,1.97,1.56c0.77,0.71,1.18,1.37,1.23,1.97
			c0.27,1.65-0.49,3.46-2.3,5.43c-2.58,2.85-6.42,4.85-11.52,6.01c-1.15,0.27-2.32,0.41-3.5,0.41c-1.18,0-1.99-0.44-2.43-1.32
			c-0.16-0.22-0.25-0.56-0.25-1.03c0-0.47,0.44-1.22,1.32-2.26c0.82-0.82,2.14-1.62,3.95-2.39c0.16-0.05,0.3-0.03,0.41,0.08
			c0.11,0.11,0.14,0.25,0.08,0.41c-0.06,0.16-0.34,0.36-0.86,0.58C313.68,89.65,313.12,90.17,312.51,90.99z"/>
	</g>
	<g>
		<path class="st0" d="M349.21,67.13c4.22-0.38,6.79-0.58,7.69-0.58c0.91,0,1.36,0.14,1.36,0.41c0,0.33-0.65,0.67-1.93,1.03
			c-1.29,0.36-4.43,0.81-9.42,1.36c-0.28,0.49-0.6,1.07-0.99,1.73c-0.82,1.32-1.26,2.11-1.32,2.39c-3.13,6.25-4.77,10.23-4.94,11.93
			c-0.06,0.49-0.08,1.12-0.08,1.89c0,0.77,0.22,1.4,0.66,1.89c0.77,0.88,1.86,0.93,3.29,0.16c1.43-0.77,3.41-2.3,5.97-4.61
			c2.55-2.3,4.62-4.55,6.21-6.75c0.22-0.27,0.49-0.33,0.82-0.16c0.82,0.38-0.6,2.55-4.28,6.5c-3.51,3.79-6.45,6.12-8.8,6.99
			c-1.37,0.49-2.52,0.74-3.46,0.74c-2.19,0-3.65-1.04-4.36-3.13c-0.11-0.38-0.16-0.85-0.16-1.4c0-1.92,0.88-4.83,2.63-8.72
			c-0.28,0.6-1.34,1.97-3.21,4.11c-0.49,0.55-0.88,0.55-1.15,0c-0.06-0.11-0.08-0.26-0.08-0.45c0-0.19,0.11-0.42,0.33-0.7
			c2.69-3.35,4.8-6.17,6.34-8.48c0-0.05,0.6-1.21,1.81-3.46c-0.55,0.11-1.11,0.16-1.69,0.16c-0.58,0-1-0.18-1.28-0.53
			c-0.27-0.36-0.3-0.78-0.08-1.28c0.38-0.88,1.84-1.37,4.36-1.48c0.05-0.11,0.16-0.16,0.33-0.16l4.11-7.65
			c0.22-0.44,0.47-0.89,0.74-1.36c0.27-0.47,0.48-0.82,0.62-1.07c0.14-0.25,0.29-0.51,0.45-0.78c0.16-0.27,0.3-0.47,0.41-0.58
			c0.11-0.11,0.22-0.22,0.33-0.33c0.22-0.33,0.86-0.49,1.93-0.49c1.07,0,1.8,0.3,2.18,0.91c0.16,0.22,0.25,0.59,0.25,1.11
			c0,0.52-0.19,1.1-0.58,1.73c-0.38,0.63-0.8,1.08-1.23,1.36c-0.44,0.27-0.74,0.58-0.91,0.91l-3.95,6.91L349.21,67.13z"/>
	</g>
	<g>
		<path class="st0" d="M118.4,112.11v7.84h-0.62v-7.84h-2.93v-0.56h6.48v0.56H118.4z"/>
		<path class="st0" d="M141.27,119.95l-2.68-3.48h-2.75v3.48h-0.62v-8.4h3.53c0.46,0,0.87,0.06,1.24,0.17
			c0.37,0.12,0.68,0.28,0.94,0.49c0.26,0.21,0.46,0.46,0.61,0.76s0.22,0.61,0.22,0.97v0.02c0,0.35-0.06,0.67-0.19,0.94
			s-0.3,0.51-0.52,0.71c-0.22,0.2-0.48,0.36-0.78,0.49c-0.3,0.12-0.63,0.21-0.98,0.26l2.77,3.59H141.27z M141.13,113.95
			c0-0.57-0.21-1.02-0.63-1.35s-1.01-0.49-1.78-0.49h-2.87v3.79h2.83c0.35,0,0.68-0.04,0.98-0.13c0.3-0.09,0.56-0.21,0.77-0.38
			s0.39-0.37,0.51-0.6c0.12-0.24,0.19-0.51,0.19-0.81V113.95z"/>
		<path class="st0" d="M162.92,119.95l-1.07-2.35h-4.96l-1.07,2.35h-0.65l3.91-8.46h0.6l3.91,8.46H162.92z M159.38,112.17
			l-2.22,4.86h4.43L159.38,112.17z"/>
		<path class="st0" d="M179.71,120.01h-0.55l-3.7-8.46h0.7l3.29,7.73l3.3-7.73h0.66L179.71,120.01z"/>
		<path class="st0" d="M197.18,119.95v-8.4h5.98v0.56h-5.35v3.32h4.81V116h-4.81v3.38h5.41v0.56H197.18z"/>
		<path class="st0" d="M217.22,119.95v-8.4h0.62v7.84h4.93v0.56H217.22z"/>
	</g>
</g>
</svg>
